<?xml version="1.0" standalone="no"?>
<!DOCTYPE svg PUBLIC "-//W3C//DTD SVG 20010904//EN"
 "http://www.w3.org/TR/2001/REC-SVG-20010904/DTD/svg10.dtd">
<svg version="1.0" xmlns="http://www.w3.org/2000/svg"
 width="700.000000pt" height="700.000000pt" viewBox="0 0 700.000000 700.000000"
 preserveAspectRatio="xMidYMid meet">
<metadata>
Created by potrace 1.11, written by Peter Selinger 2001-2013
</metadata>
<g transform="translate(0.000000,700.000000) scale(0.100000,-0.100000)"
fill="#000000" stroke="none">
<path d="M3278 6996 c-1 -2 -42 -6 -89 -10 -47 -4 -95 -8 -105 -10 -10 -2 -45
-7 -78 -11 -95 -11 -209 -34 -356 -70 -376 -92 -733 -249 -1070 -469 -465
-304 -870 -740 -1143 -1231 -48 -87 -147 -289 -147 -301 0 -2 -9 -23 -20 -47
-57 -123 -157 -435 -186 -582 -2 -11 -10 -54 -19 -95 -29 -147 -36 -200 -52
-370 -15 -164 -8 -592 12 -711 2 -13 6 -46 9 -74 46 -405 232 -933 458 -1303
35 -57 68 -111 73 -120 51 -89 251 -346 356 -457 229 -243 516 -482 734 -610
28 -16 58 -34 67 -40 187 -114 523 -264 723 -323 135 -40 217 -62 290 -78 82
-18 146 -31 195 -38 124 -19 162 -23 238 -31 l63 -6 -73 93 c-40 51 -130 170
-200 263 -70 94 -132 175 -137 181 -15 18 -195 274 -206 292 -5 9 -42 69 -81
132 -260 419 -423 863 -450 1224 -18 249 11 471 90 675 65 168 156 342 330
629 61 101 118 196 127 210 9 15 50 82 93 149 98 157 171 304 234 473 51 135
125 383 136 454 4 21 8 41 10 45 7 11 19 135 18 184 0 26 3 47 8 47 36 0 194
-229 263 -380 40 -88 66 -158 78 -208 6 -26 13 -56 16 -67 3 -11 7 -69 8 -130
6 -186 -33 -355 -182 -795 -121 -356 -132 -393 -162 -565 -29 -162 -13 -333
36 -394 18 -22 18 -22 80 61 34 46 71 94 82 108 77 95 211 289 283 410 241
402 320 703 313 1190 -2 113 -6 216 -8 230 -3 14 -8 54 -12 90 -23 229 -97
491 -206 728 -266 578 -311 727 -312 1037 -2 171 31 407 75 558 14 46 13 48
78 -112 108 -262 142 -331 279 -568 41 -72 247 -395 409 -643 363 -556 493
-791 582 -1060 63 -188 108 -392 126 -575 10 -100 11 -374 2 -478 -38 -417
-212 -875 -571 -1502 -212 -372 -356 -665 -457 -936 -17 -46 -35 -93 -40 -104
-15 -33 -106 -302 -145 -425 -57 -183 -67 -214 -71 -230 -2 -8 -19 -73 -39
-145 -19 -72 -35 -136 -35 -143 0 -12 83 -11 220 3 124 13 167 18 185 21 11 3
47 9 80 14 289 45 632 153 916 288 856 407 1513 1147 1815 2045 38 111 84 273
100 352 16 79 54 301 59 350 4 33 9 71 11 85 9 47 11 525 3 605 -15 165 -21
220 -24 225 -2 3 -6 30 -10 60 -9 75 -69 337 -98 435 -202 663 -569 1225
-1091 1672 -92 78 -326 252 -387 288 -273 159 -399 223 -579 295 -183 74 -398
139 -575 175 -44 9 -89 19 -100 21 -11 2 -38 6 -60 9 -22 3 -51 7 -65 10 -13
2 -52 7 -86 11 -33 3 -74 8 -90 10 -33 5 -540 14 -546 10z"/>
</g>
</svg>
