<svg id="Layer_1" data-name="Layer 1" xmlns="http://www.w3.org/2000/svg" viewBox="0 0 512 512"><defs><style>.cls-1{fill:#00368a;}</style></defs><title>Artboard 1</title><path class="cls-1" d="M512,256c0-141.37-114.61-256-256-256S0,114.67,0,256C0,390.83,104.18,501.29,236.4,511.29c-11.3-13.77-25.22-32.35-37.71-49.87-20.9-29.35-45.8-73.39-46.64-117.4-.61-32.64,6.81-50.55,49.9-118.37,16.84-26.5,28.06-71.89,26.44-81.64s15.75,14.75,22.29,31.18c8.65,21.73,7.36,38.33-8.64,83.26-7.6,21.33-20.09,55.86-7.57,71.26-1.52-1.86,40.68-44.89,50.46-89.43,7.47-34,4.37-79.48-10.35-113.07-12.84-29.36-28.35-53.54-25.19-92.39,1.32-16.24,5.8-32.21,6.3-33.07,9.45,23.76,13.78,32.42,17.32,39.11,17.32,32.7,53.12,81.06,70.14,114,16.91,32.71,30.09,86.92,10.4,142.22C334.21,351.33,315.49,369.8,296,413.7c-14.57,32.78-26.93,73.15-33.11,98.25C401.08,508.31,512,395.13,512,256Z"/></svg>